name C:\Users\r0593348\3dpredictsim\Results\MidTarsalJoint\Fal_s1_bCst_PF_Natali2010_ls150_MT_k500_d010_MTP_T5_ig24.mot
datacolumns 128
datarows 4
range 1.12489020 1.15863691
endheader
time	pelvis_tilt	pelvis_list	pelvis_rotation	pelvis_tx	pelvis_ty	pelvis_tz	hip_flexion_l	hip_adduction_l	hip_rotation_l	hip_flexion_r	hip_adduction_r	hip_rotation_r	knee_angle_l	knee_angle_r	ankle_angle_l	ankle_angle_r	subtalar_angle_l	subtalar_angle_r	mtj_angle_l	mtj_angle_r	mtp_angle_l	mtp_angle_r	lumbar_extension	lumbar_bending	lumbar_rotation	arm_flex_l	arm_add_l	arm_rot_l	arm_flex_r	arm_add_r	arm_rot_r	elbow_flex_l	elbow_flex_r	pro_sup_l	pro_sup_r	glut_med1_l/activation	glut_med2_l/activation	glut_med3_l/activation	glut_min1_l/activation	glut_min2_l/activation	glut_min3_l/activation	semimem_l/activation	semiten_l/activation	bifemlh_l/activation	bifemsh_l/activation	sar_l/activation	add_long_l/activation	add_brev_l/activation	add_mag1_l/activation	add_mag2_l/activation	add_mag3_l/activation	tfl_l/activation	pect_l/activation	grac_l/activation	glut_max1_l/activation	glut_max2_l/activation	glut_max3_l/activation	iliacus_l/activation	psoas_l/activation	quad_fem_l/activation	gem_l/activation	peri_l/activation	rect_fem_l/activation	vas_med_l/activation	vas_int_l/activation	vas_lat_l/activation	med_gas_l/activation	lat_gas_l/activation	soleus_l/activation	tib_post_l/activation	flex_dig_l/activation	flex_hal_l/activation	tib_ant_l/activation	per_brev_l/activation	per_long_l/activation	per_tert_l/activation	ext_dig_l/activation	ext_hal_l/activation	ercspn_l/activation	intobl_l/activation	extobl_l/activation	glut_med1_r/activation	glut_med2_r/activation	glut_med3_r/activation	glut_min1_r/activation	glut_min2_r/activation	glut_min3_r/activation	semimem_r/activation	semiten_r/activation	bifemlh_r/activation	bifemsh_r/activation	sar_r/activation	add_long_r/activation	add_brev_r/activation	add_mag1_r/activation	add_mag2_r/activation	add_mag3_r/activation	tfl_r/activation	pect_r/activation	grac_r/activation	glut_max1_r/activation	glut_max2_r/activation	glut_max3_r/activation	iliacus_r/activation	psoas_r/activation	quad_fem_r/activation	gem_r/activation	peri_r/activation	rect_fem_r/activation	vas_med_r/activation	vas_int_r/activation	vas_lat_r/activation	med_gas_r/activation	lat_gas_r/activation	soleus_r/activation	tib_post_r/activation	flex_dig_r/activation	flex_hal_r/activation	tib_ant_r/activation	per_brev_r/activation	per_long_r/activation	per_tert_r/activation	ext_dig_r/activation	ext_hal_r/activation	ercspn_r/activation	intobl_r/activation	extobl_r/activation	
          1.12489020	         -2.93017644	         -2.09473712	          5.19028925	          1.40611275	          0.91908387	         -0.00175619	        -17.11498164	         -1.06174226	          6.40263830	         29.39763762	          3.41407257	         -2.34492195	         -7.37986922	        -11.76104736	         -1.16634132	          5.70677728	          8.35494993	         -4.31483311	          3.02723695	         -0.01336503	         15.16198453	         -0.87067306	         -2.04567077	          0.27989749	         -2.01087529	          4.47034788	        -13.45340013	         15.26684175	         -5.23204530	        -13.45281047	          5.21345679	         35.23539509	         17.76926436	         86.51662706	         86.51662706	          0.25876030	          0.09942371	          0.07467208	          0.29226076	          0.19386587	          0.10873988	          0.05000174	          0.05000042	          0.05000025	          0.05937500	          0.10391683	          0.08874865	          0.05928978	          0.05000229	          0.05000537	          0.05000155	          0.30296804	          0.05020171	          0.05000221	          0.05000780	          0.05000560	          0.05000658	          0.39890787	          0.63804217	          0.05000092	          0.05000074	          0.05175644	          0.23444982	          0.05004061	          0.05002421	          0.05001030	          0.28681799	          0.38995588	          0.32158214	          0.28234322	          0.27235207	          0.35904395	          0.05000006	          0.05937179	          0.12015083	          0.05000033	          0.05000009	          0.05000032	          0.05000002	          0.05000078	          0.05026407	          0.05937404	          0.05937407	          0.05000030	          0.05937412	          0.05937411	          0.05937348	          0.12372483	          0.05937428	          0.21854160	          0.05000038	          0.05000027	          0.13099318	          0.28395527	          0.11769909	          0.15641851	          0.10967190	          0.05000018	          0.06023992	          0.10181848	          0.05000096	          0.05778910	          0.15384382	          0.05000066	          0.05000017	          0.21141978	          0.26158491	          0.13172400	          0.05000102	          0.13419540	          0.13240843	          0.11876361	          0.05027798	          0.05039284	          0.05429120	          0.05000004	          0.05000069	          0.05000031	          0.52925191	          0.25543577	          0.16547526	          0.23385999	          0.46441842	          0.21533634	          0.05937406	          0.11409508	          0.10122501	
          1.13613910	         -2.92707104	         -2.18021473	          5.47149015	          1.42305485	          0.91813392	         -0.00156203	        -17.01962639	         -1.35671427	          6.20482140	         28.76021597	          3.74856115	         -2.11407972	         -9.23395259	        -11.97544705	         -1.77296402	          5.06311465	          9.28406205	         -4.68441515	          2.44062040	         -0.01351401	         16.62141975	         -0.86804594	         -1.84560427	          0.48027252	         -2.07699375	          4.18443112	        -13.45852909	         15.58828298	         -6.06835449	        -13.45043643	          4.98675132	         36.40286232	         17.30451759	         86.51662706	         86.51662706	          0.21790683	          0.08372655	          0.06288276	          0.24611830	          0.16325805	          0.09157189	          0.05000194	          0.05000052	          0.05000068	          0.05000087	          0.08751049	          0.18042287	          0.05198711	          0.05937556	          0.05934656	          0.05937409	          0.25513506	          0.09235183	          0.05001135	          0.05000205	          0.05000151	          0.05000176	          0.33592769	          0.59059073	          0.05000072	          0.05937403	          0.05937424	          0.19743474	          0.13083349	          0.14436311	          0.14693043	          0.24153466	          0.32838899	          0.27123704	          0.24447551	          0.22935318	          0.30235826	          0.05000003	          0.05000012	          0.13186431	          0.05000010	          0.05000003	          0.05000015	          0.05706151	          0.06303175	          0.05937328	          0.05000001	          0.05000006	          0.10497925	          0.05000006	          0.05000007	          0.05000009	          0.10419107	          0.05000030	          0.18403792	          0.05000012	          0.05407853	          0.11031213	          0.26246017	          0.31444744	          0.21154552	          0.11895268	          0.05000056	          0.07047732	          0.12245062	          0.05193690	          0.08897631	          0.12955507	          0.05000014	          0.06007968	          0.44735931	          0.22028546	          0.11092723	          0.05937948	          0.14940852	          0.14893209	          0.12958718	          0.05000033	          0.05937545	          0.05000004	          0.05937426	          0.05000476	          0.05937426	          0.47268582	          0.27942061	          0.20295661	          0.19693790	          0.43079443	          0.18133874	          0.05000001	          0.09608156	          0.08524343	
          1.14738800	         -2.92006648	         -2.26928691	          5.72329314	          1.44028336	          0.91723905	         -0.00138317	        -16.85729320	         -1.65153942	          5.99784694	         27.99943907	          4.00030748	         -1.85752440	        -11.18992382	        -12.47060711	         -2.53345850	          4.54332169	         10.16894310	         -5.07279997	          1.76212081	         -0.14749486	         18.07628465	         -0.89558824	         -1.62556561	          0.69224102	         -2.13190768	          3.82754948	        -13.46041802	         15.84619530	         -6.93003375	        -13.45472992	          4.81584047	         37.54087573	         16.88871238	         86.51662706	         86.51662706	          0.32430385	          0.07050768	          0.05295478	          0.31190000	          0.13748268	          0.07711441	          0.05000138	          0.05000022	          0.05000018	          0.05000023	          0.07369450	          0.15193753	          0.05000081	          0.05000155	          0.05000099	          0.05000072	          0.24183093	          0.07777269	          0.05000098	          0.05000285	          0.05000171	          0.05000107	          0.28289099	          0.55986331	          0.05000031	          0.05000089	          0.05000033	          0.16626345	          0.11017752	          0.12157106	          0.12373300	          0.20340075	          0.27654238	          0.22841366	          0.20587736	          0.19314266	          0.25462155	          0.05000002	          0.09559422	          0.15304848	          0.05000014	          0.05000006	          0.05000015	          0.05000121	          0.05308020	          0.05000005	          0.23275793	          0.23568919	          0.30192054	          0.35353665	          0.22378137	          0.21666362	          0.09626295	          0.05556354	          0.15498585	          0.08372295	          0.05000210	          0.09289592	          0.22102259	          0.26480203	          0.17814651	          0.11858821	          0.05000045	          0.05937406	          0.10312395	          0.05000039	          0.11087956	          0.10910091	          0.05820726	          0.05059435	          0.37672949	          0.18550654	          0.21645709	          0.05000457	          0.12581971	          0.12541851	          0.10912780	          0.05000110	          0.05000150	          0.05236759	          0.05000022	          0.05000043	          0.05000069	          0.55041132	          0.32392701	          0.17091409	          0.34923469	          0.50172647	          0.15275870	          0.06081785	          0.11806033	          0.07178506	
          1.15863691	         -2.91148532	         -2.35220707	          5.94094955	          1.45758071	          0.91642197	         -0.00118299	        -16.59134524	         -1.93622837	          5.79893433	         27.18926393	          4.23192868	         -1.59980108	        -13.28722799	        -12.92803100	         -3.46546732	          4.07849339	         11.01359575	         -5.46404044	          1.05152406	         -0.11327959	         19.42606322	         -0.87006265	         -1.40920781	          0.90592783	         -2.17802250	          3.43745578	        -13.46792522	         16.06931695	         -7.77036669	        -13.46019876	          4.70178720	         38.62878964	         16.50092398	         86.51662706	         86.51662706	          0.29822750	          0.05937583	          0.05000011	          0.26265750	          0.11577675	          0.06493950	          0.05000230	          0.05000026	          0.05000023	          0.05000019	          0.06205969	          0.15712711	          0.05725554	          0.05000650	          0.05000482	          0.05000229	          0.20365144	          0.06550114	          0.05000129	          0.05000216	          0.05000149	          0.05000121	          0.23822771	          0.51160955	          0.05000026	          0.05000085	          0.05000020	          0.14001351	          0.13203234	          0.12330155	          0.11806084	          0.17128749	          0.23288139	          0.19235131	          0.17337312	          0.16264907	          0.21442155	          0.05692950	          0.09975457	          0.15363092	          0.05000058	          0.11487068	          0.05000094	          0.07709642	          0.05000001	          0.05000004	          0.32786155	          0.32555707	          0.34954180	          0.29771991	          0.18845159	          0.18350383	          0.08336601	          0.08566170	          0.13051658	          0.07050492	          0.05000070	          0.07822939	          0.18612722	          0.22299490	          0.15079211	          0.16020301	          0.05000030	          0.05000139	          0.08684443	          0.20695706	          0.17533396	          0.15454243	          0.05000008	          0.05000008	          0.31725084	          0.15621852	          0.18228276	          0.05000005	          0.12708333	          0.14829565	          0.10320374	          0.05000002	          0.05000005	          0.05000000	          0.05000001	          0.05000010	          0.05000010	          0.60835575	          0.29528873	          0.16191696	          0.56135748	          0.53941764	          0.27359214	          0.07995209	          0.09942078	          0.06045151	
